<?xml version="1.0" standalone="no"?><!DOCTYPE svg PUBLIC "-//W3C//DTD SVG 1.1//EN" "http://www.w3.org/Graphics/SVG/1.1/DTD/svg11.dtd"><svg t="1718848768122" class="icon" viewBox="0 0 1024 1024" version="1.1" xmlns="http://www.w3.org/2000/svg" p-id="4297" xmlns:xlink="http://www.w3.org/1999/xlink" width="256" height="256"><path d="M974.411093 435.71942a37.398261 37.398261 0 0 1 6.529855 20.183189l3.56174 457.683478a37.991884 37.991884 0 0 1-28.493914 38.585507l-471.930434 71.828406c-16.027826 0-28.493913-10.685217-28.493913-30.274783L451.429064 534.26087A54.613333 54.613333 0 0 1 454.990803 514.077681l237.449276-402.476522a33.836522 33.836522 0 0 1 22.557681-16.621449 23.151304 23.151304 0 0 1 22.557681 10.091594zM811.164717 636.957681V527.731014c0-59.362319-42.147246-103.290435-92.605218-95.573333a118.724638 118.724638 0 0 0-93.792464 122.88v109.226667l186.397682-27.306667" fill="#7E94F2" p-id="4298"></path><path d="M411.656311 534.26087L39.454572 446.404638l3.561739 452.934492a29.681159 29.681159 0 0 0 20.183188 29.68116L415.811673 1009.15942l-4.155362-474.89855z" fill="#E5805C" p-id="4299"></path><path d="M421.747905 501.611594l242.198261-419.691594L308.959499 0h-8.904348a26.713043 26.713043 0 0 0-10.685217 4.155362h-3.561739L276.903847 15.434203 47.171673 415.536232z" fill="#31BFF7" p-id="4300"></path></svg>